<?xml version="1.0" standalone="no"?>
<!DOCTYPE svg PUBLIC "-//W3C//DTD SVG 20010904//EN"
 "http://www.w3.org/TR/2001/REC-SVG-20010904/DTD/svg10.dtd">
<svg version="1.0" xmlns="http://www.w3.org/2000/svg"
 width="16.000000pt" height="16.000000pt" viewBox="0 0 16.000000 16.000000"
 preserveAspectRatio="xMidYMid meet">
<metadata>
Created by potrace 1.11, written by Peter Selinger 2001-2013
</metadata>
<g transform="translate(0.000000,16.000000) scale(0.001667,-0.001667)"
fill="#000000" stroke="none">
<path d="M1851 9184 c-83 -14 -148 -36 -231 -76 -219 -107 -389 -326 -456
-584 -23 -88 -25 -114 -21 -234 3 -114 8 -147 31 -215 59 -172 183 -326 310
-386 121 -56 275 -51 397 13 232 121 310 430 188 740 -44 113 -135 220 -224
265 -71 36 -136 36 -215 -2 -60 -29 -62 -29 -76 -10 -28 38 -14 90 45 164 50
63 134 113 253 151 99 32 106 33 228 27 212 -10 326 -54 442 -168 100 -100
174 -261 237 -514 29 -115 35 -147 45 -225 24 -180 31 -252 41 -370 3 -36 8
-92 11 -125 8 -96 13 -360 7 -384 -5 -19 -12 -21 -77 -21 -65 0 -135 -14 -318
-64 -31 -9 -96 -31 -143 -50 -429 -173 -729 -511 -891 -1001 -202 -616 -173
-1017 117 -1574 148 -282 307 -487 572 -736 70 -66 133 -125 140 -130 135
-112 191 -156 292 -232 366 -274 585 -417 779 -509 l74 -35 0 -207 c1 -114 3
-227 6 -252 3 -25 8 -67 12 -95 27 -232 152 -763 249 -1050 76 -228 217 -500
350 -676 138 -183 242 -278 380 -350 123 -63 198 -63 267 -1 71 64 112 174
145 392 23 156 23 533 -1 710 -9 69 -19 143 -22 165 -24 185 -77 430 -110 503
-13 30 -24 56 -24 58 0 1 51 33 113 70 332 199 673 448 987 719 645 555 1254
1313 1534 1906 106 224 169 422 211 664 20 117 26 368 13 515 -17 180 -71 426
-128 581 -119 329 -406 628 -779 814 -224 111 -432 163 -696 172 -398 14 -819
-108 -1109 -320 -129 -94 -349 -325 -412 -432 -33 -57 -66 -154 -105 -310 -36
-141 -48 -165 -88 -165 -31 0 -45 12 -56 50 -34 116 -183 338 -315 470 -176
177 -320 263 -584 347 -77 25 -148 49 -156 53 -34 16 -49 154 -65 622 -3 81
-7 153 -9 160 -3 7 -7 38 -10 68 -33 341 -161 666 -332 846 -104 109 -249 195
-384 228 -146 35 -331 48 -439 30z m3901 -1855 c159 -24 263 -66 383 -156 177
-133 297 -276 385 -460 133 -277 211 -725 206 -1178 -2 -121 -6 -231 -9 -245
-3 -14 -11 -59 -17 -100 -45 -301 -219 -713 -462 -1094 -74 -116 -174 -261
-279 -406 -63 -87 -388 -495 -431 -540 -12 -14 -38 -43 -57 -65 -192 -226
-583 -613 -741 -735 -25 -19 -47 -37 -50 -40 -15 -17 -64 -50 -75 -50 -7 0
-32 46 -55 102 -149 360 -322 636 -545 867 -98 102 -175 164 -328 265 -135 88
-178 128 -211 194 -18 36 -40 111 -38 129 1 2 -3 16 -8 33 -5 16 -12 65 -16
107 -3 43 -17 159 -29 258 -23 183 -31 347 -19 378 3 10 70 49 148 87 163 81
277 162 391 281 196 204 318 476 360 802 4 31 11 47 18 44 7 -2 36 -37 65 -78
176 -249 360 -352 652 -366 90 -5 114 -2 170 17 261 88 492 391 484 635 -7
205 -160 395 -376 466 -57 19 -94 24 -168 24 -53 -1 -109 -6 -125 -12 -17 -6
-61 -23 -99 -38 -93 -36 -183 -38 -249 -6 -67 32 -81 58 -74 130 9 78 60 217
109 292 136 212 399 377 698 439 150 31 274 37 392 19z m-2895 -267 c12 -7 28
-32 37 -59 14 -45 47 -246 61 -378 4 -32 8 -66 10 -75 1 -8 6 -46 10 -85 4
-38 8 -77 10 -85 1 -8 6 -42 9 -75 4 -33 9 -71 11 -85 2 -14 6 -52 10 -85 3
-33 12 -116 20 -185 8 -69 17 -145 20 -170 2 -25 14 -124 25 -220 12 -96 20
-213 18 -260 l-3 -85 -69 -3 c-141 -6 -278 60 -423 204 -80 80 -97 103 -141
195 -64 131 -77 196 -69 347 10 197 78 398 155 462 62 51 15 83 -57 39 -85
-51 -226 -231 -291 -370 -48 -103 -63 -193 -56 -334 10 -194 66 -412 144 -559
85 -160 358 -384 648 -530 61 -31 143 -64 182 -74 l71 -17 10 -50 c27 -131 65
-454 76 -630 4 -55 8 -105 10 -112 10 -30 -26 -19 -173 52 -395 191 -711 412
-992 694 -305 306 -469 572 -562 913 -20 73 -23 106 -22 263 0 147 4 198 22
280 74 336 207 545 497 784 165 136 274 198 447 256 138 46 305 63 355 37z
m335 -42 c461 -168 733 -812 538 -1278 -55 -134 -94 -196 -170 -272 -62 -63
-264 -220 -282 -220 -5 0 -21 136 -33 280 -4 48 -25 247 -40 390 -23 205 -83
805 -91 895 -3 39 -9 99 -14 135 -12 84 -12 100 0 100 5 0 47 -14 92 -30z
m411 -4186 c31 -16 157 -102 167 -114 3 -3 16 -13 29 -22 55 -38 252 -241 357
-368 263 -319 453 -631 493 -810 18 -83 21 -105 22 -176 3 -233 -77 -300 -303
-254 -164 34 -283 113 -361 240 -136 219 -172 281 -211 357 -45 88 -52 106
-107 263 -29 83 -84 283 -95 344 -2 17 -9 47 -14 66 -4 19 -14 76 -20 125 -6
50 -13 104 -16 120 -9 69 -12 202 -3 223 10 26 20 27 62 6z"/>
<path d="M8155 7176 c-94 -30 -158 -83 -200 -166 -51 -103 -56 -212 -15 -323
43 -115 126 -193 243 -229 62 -19 78 -20 125 -10 149 31 238 110 278 248 44
152 -27 351 -154 437 -78 52 -192 70 -277 43z"/>
<path d="M8153 5731 c-155 -53 -248 -191 -244 -361 2 -72 18 -124 57 -186 124
-197 345 -240 503 -98 205 184 160 516 -87 631 -70 33 -159 38 -229 14z"/>
</g>
</svg>
